<svg width="504" height="502" viewBox="0 0 504 502" fill="none" xmlns="http://www.w3.org/2000/svg">
<path d="M490 2H14C7.37258 2 2 7.37257 2 14V449.306C2 455.934 7.37258 461.306 14 461.306H490C496.627 461.306 502 455.934 502 449.306V14C502 7.37258 496.627 2 490 2Z" stroke="white" stroke-width="4" stroke-miterlimit="10"/>
<path d="M107.706 462.142H368.945C370.042 452.972 330.026 257.966 283.022 195.276C277.686 188.161 232.004 182.985 215.234 200.681C126.403 294.395 105.559 459.896 107.706 462.142Z" fill="#27DEBF"/>
<path d="M289.217 211.459C296.632 229.105 324.605 290.972 339.807 335.372C350.01 365.168 353.894 390.175 356.126 396.746C356.126 396.746 278.991 373.985 261.623 373.946C234.876 373.885 191.97 425.203 202.495 431.628C219.04 441.74 297.907 476.124 360.889 486.919C395.124 492.789 459.63 452.815 454.532 421.035C447.379 376.433 359.639 258.868 326.257 225.531C308.926 208.227 280.18 189.954 289.217 211.459Z" fill="#FF9581"/>
<path d="M459.234 430.463C457.618 462.59 413.87 489.636 388.495 491.064C344.735 493.501 213.46 458.383 213.46 458.383L264.489 368.076C264.489 368.076 353.815 395.928 356.083 396.712V396.679C355.297 394.287 333.282 318.298 323.446 293.117C322.922 291.728 322.312 290.305 321.739 288.81C318.909 281.835 315.025 272.626 310.731 262.677L310.689 262.604C308.31 257.097 305.798 251.339 303.328 245.659V245.625C292.541 221.005 282.027 197.572 282.027 197.572C297.065 199.841 311.914 207.101 336.295 230.606C360.627 254.084 461.905 377.464 459.234 430.463Z" fill="#27DEBF"/>
<path d="M247.482 438.844C251.122 432.453 254.824 426.089 258.477 419.703C262.062 413.451 265.691 407.222 269.35 401.004C273.13 394.573 277.1 388.153 280.155 381.397C280.21 381.269 280.021 381.162 279.93 381.274C275.338 386.837 271.557 392.971 267.782 399.015C263.873 405.278 260.062 411.597 256.287 417.933C252.586 424.14 249.024 430.408 245.512 436.699C241.902 443.175 238.255 449.886 235.645 456.765C235.541 457.039 235.956 457.308 236.151 457.039C240.371 451.286 243.981 444.984 247.482 438.844Z" fill="#2B454E"/>
<path d="M383.403 410.039L356.126 396.752L356.084 396.718V396.684C355.297 394.292 333.283 318.303 323.446 293.123C322.922 291.734 322.312 290.311 321.739 288.815C318.909 281.841 315.025 272.631 310.732 262.683L383.403 410.039Z" fill="#1C1C1C"/>
<path d="M405.985 421.063C398.411 415.864 390.246 411.215 382.019 406.941C377.909 404.801 373.713 402.835 369.402 401.064C364.816 399.182 359.968 397.821 355.413 395.927C355.065 395.782 354.809 396.275 355.157 396.42C359.413 398.191 363.456 400.655 367.566 402.711C371.841 404.851 376.134 406.958 380.464 409.002C388.965 413.019 397.313 417.282 405.765 421.382C405.967 421.483 406.174 421.192 405.985 421.063Z" fill="#1C1C1C"/>
<path d="M386.123 401.608C379.275 401.692 337.941 391.553 331.923 396.762C295.236 428.531 283.637 422.133 275.826 426.273C215.375 458.22 134.647 495.753 105.833 495.988C62.134 496.313 44.7298 462.623 52.0049 430.794C66.3661 367.874 158.741 245.188 200.538 212.585C222.698 195.326 220.948 221.357 211.783 249.658C206.404 266.251 197.001 290.921 187.408 315.132C178.914 336.699 156.399 391.81 156.009 393.104V393.138C155.972 393.211 155.936 393.25 155.942 393.289C155.911 393.435 156.07 393.463 156.424 393.373C158.345 393.048 210.039 370.669 262.025 358.373C280.344 354.043 318.494 347.869 332.173 353.477C340.307 356.81 340.442 361.269 340.442 361.269C340.442 361.269 346.961 360.726 353.839 365.924C358.401 369.375 359.816 374.254 359.816 374.254C359.816 374.254 366.95 375.173 370.664 378.971C375.091 383.503 375.482 388.298 375.482 388.298C385.117 390.662 386.123 401.608 386.123 401.608Z" fill="#FFA8A7"/>
<path d="M325.062 359.943C319.55 360.015 314.171 360.749 308.756 361.623C308.39 361.685 308.402 362.206 308.792 362.167C314.11 361.629 319.495 361.517 324.837 361.354C330.148 361.192 335.545 361.085 340.856 361.186C340.887 361.186 340.893 361.136 340.863 361.13C335.563 360.329 330.453 359.87 325.062 359.943Z" fill="#1A2E35"/>
<path d="M359.663 373.963C350.199 371.577 342.655 370.255 330.77 371.622C330.386 371.667 330.416 372.188 330.794 372.165C342.088 371.521 349.455 372.574 359.645 374.148C359.761 374.171 359.767 373.991 359.663 373.963Z" fill="#1A2E35"/>
<path d="M375.378 388.007C365.889 384.422 358.584 383.302 348.052 383.302C347.68 383.302 347.558 383.806 347.942 383.84C358.047 384.725 365.438 386.058 375.238 388.399C375.482 388.455 375.61 388.097 375.378 388.007Z" fill="#1A2E35"/>
<path d="M259.501 358.928C254.964 359.472 250.427 360.699 245.987 361.701C241.255 362.771 236.535 363.953 231.9 365.359C222.619 368.171 213.612 371.544 204.727 375.263C204.386 375.409 204.569 375.891 204.934 375.773C213.984 372.86 223.125 370.132 232.273 367.488C236.773 366.188 241.243 364.805 245.725 363.46C250.323 362.077 255.11 361.029 259.629 359.455C259.934 359.348 259.842 358.884 259.501 358.928Z" fill="#1A2E35"/>
<path d="M223.345 367.931C232.913 364.956 237.237 364.939 237.237 364.939L291.626 449.309C291.626 449.309 141.819 498.852 111.066 501.748C80.3066 504.644 45.3153 482.393 44.7238 446.922C43.8945 397.066 132.397 277.338 176.92 231.038C197.324 209.819 221.113 194.408 227.181 197.887C234.346 201.993 221.333 228.674 214.472 248.578C201.812 285.32 156.436 393.374 156.436 393.374C156.436 393.374 211.947 371.477 223.345 367.931Z" fill="#27DEBF"/>
<path d="M236.749 364.872C228.309 365.325 191.824 377 173.932 384.052C156.101 391.083 138.946 399.424 122.853 409.406C113.749 415.053 105.108 421.198 96.5703 427.545C96.2776 427.763 96.5947 428.2 96.9118 427.993C112.645 417.658 129.452 408.437 146.459 399.995C163.382 391.598 180.615 383.627 198.55 377.201C208.764 373.543 226.327 368.065 236.303 365.661C239.127 364.978 237.011 364.855 236.749 364.872Z" fill="#1C1C1C"/>
<path d="M200.83 291.095C198.55 294.478 196.239 297.839 194.287 301.402C194.196 301.57 194.11 301.738 194.019 301.906C196.915 293.812 199.666 285.695 202.3 277.521C202.465 277.017 201.556 276.748 201.349 277.236C188.476 307.183 176.529 337.495 164.943 367.885C161.699 376.383 158.857 384.97 155.911 393.552C155.808 393.849 156.338 394.001 156.472 393.721C160.009 386.36 163.571 379.049 166.809 371.56C170.047 364.076 173.053 356.507 176.096 348.956C181.414 335.753 186.481 322.482 191.366 309.144C192.897 306.808 194.44 304.478 195.885 302.102C197.989 298.635 199.721 295.005 201.477 291.38C201.666 290.983 201.068 290.742 200.83 291.095Z" fill="#1C1C1C"/>
<path d="M255.177 430.933C251.189 424.715 247.262 418.469 243.292 412.245C239.401 406.145 235.565 400.022 231.748 393.888C227.803 387.541 223.967 381.054 219.338 375.099C219.253 374.987 219.046 375.083 219.107 375.211C221.82 381.732 225.491 387.922 229.089 394.056C232.815 400.414 236.645 406.722 240.505 413.013C244.286 419.175 248.195 425.264 252.159 431.331C256.232 437.566 260.513 443.957 265.495 449.626C265.696 449.85 266.16 449.677 266.02 449.374C262.928 443.044 259.007 436.905 255.177 430.933Z" fill="#1C1C1C"/>
<path d="M293.791 449.486C289.278 441.313 282.259 433.286 277.064 425.51C276.868 425.213 276.387 425.522 276.576 425.818C281.296 433.112 285.619 440.971 290.132 448.388C269.557 456.192 247.713 463.149 226.729 469.978C205.197 476.991 183.524 483.635 161.552 489.45C149.271 492.699 136.971 496.222 124.616 499.203C123.847 499.387 124.055 499.97 124.841 499.83C147.069 495.987 168.894 490.088 190.415 483.814C212.362 477.417 234.023 470.269 255.58 462.869C267.709 458.707 294.157 450.147 293.791 449.486Z" fill="#1C1C1C"/>
<path d="M258.117 358.984C229.827 365.639 197.275 376.59 182.688 381.834C182.304 381.957 181.957 382.08 181.609 382.198C168.76 386.836 160.802 390.276 158.893 390.567C158.735 390.5 158.613 390.399 158.491 390.332V390.298C157.155 389.413 155.832 388.741 154.515 388.287C150.893 387.094 116.084 383.1 116.963 373.196C117.81 363.398 131.994 364.009 134.08 364.143C131.824 363.689 112.932 359.622 119.085 350.956C123.433 344.811 142.142 345.713 144.026 345.78C142.117 345.203 124.762 340.005 130.732 331.159C135.007 324.829 155.893 325.653 158.302 326.028C156.351 325.345 140.879 322.964 148.1 315.34C153.112 310.029 192.439 315.429 209.923 323.446C235.919 335.366 258.117 358.984 258.117 358.984Z" fill="#FFA8A7"/>
<path d="M182.688 381.834C182.304 381.957 181.957 382.08 181.609 382.198C175.572 377.89 152.728 366.776 134.781 364.664C133.671 364.535 133.598 363.947 134.775 363.998C156.936 364.922 176.859 376.91 182.688 381.834Z" fill="#1A2E35"/>
<path d="M144.88 346.435C169.651 350.95 180.847 355.975 202.148 368.406C202.446 368.579 202.782 368.176 202.495 367.974C182.64 354.323 170.285 347.561 145.093 345.858C143.953 345.78 143.746 346.228 144.88 346.435Z" fill="#1A2E35"/>
<path d="M159.064 326.498C182.829 332.301 195.354 337.332 214.496 351.56C214.948 351.897 215.503 351.387 215.088 351.011C197.05 334.94 181.463 328.571 159.29 325.893C157.777 325.714 157.57 326.134 159.064 326.498Z" fill="#1A2E35"/>
<path d="M278.057 238.953C263.983 243.603 236.645 225.884 224.808 210.457C224.003 209.392 224.418 197.309 224.162 182.599C223.973 173.675 223.528 163.737 222.412 154.702L285.82 162.04C285.82 162.04 282.094 181.619 284.143 197.365C284.332 198.682 284.625 199.892 285.028 201.029C285.07 201.197 285.15 201.399 285.192 201.634C287.32 208.547 291.662 234.45 278.057 238.953Z" fill="#FFA8A7" stroke="black" stroke-width="0.640852" stroke-miterlimit="10"/>
<path d="M285.217 201.628C285.339 202.004 285.461 202.413 285.54 202.9C247.579 201.421 233.138 186.089 223.796 171.378C223.509 165.771 223.107 160.085 222.412 154.702L285.826 162.029C285.826 162.029 282.082 181.624 284.156 197.365C284.32 198.676 284.643 199.869 285.052 201.029C285.095 201.175 285.131 201.404 285.217 201.628Z" fill="black" stroke="black" stroke-width="0.640852" stroke-miterlimit="10"/>
<path d="M196.421 93.6023C192.982 114.514 213.759 170.773 231.321 181.568C256.781 197.214 293.846 194.027 307.152 166.88C320.049 140.568 291.559 67.6937 272.374 58.3219C244.115 44.5133 201.501 62.7081 196.421 93.6023Z" fill="#FFA8A7" stroke="black" stroke-width="1.2817" stroke-miterlimit="10"/>
<path d="M255.055 118.906C254.97 118.771 254.799 119.186 254.86 119.337C256.366 123.09 257.409 127.628 254.128 130.031C254.025 130.104 254.11 130.294 254.238 130.233C258.586 128.25 257.141 122.239 255.055 118.906Z" fill="black"/>
<path d="M249.921 116.077C243.109 117.651 247.036 130.054 253.348 128.597C259.562 127.157 255.635 114.755 249.921 116.077Z" fill="black"/>
<path d="M280.497 111.87C280.485 111.713 280.881 111.965 280.924 112.122C282.009 115.998 283.961 120.273 288.15 120.536C288.278 120.541 288.333 120.743 288.187 120.76C283.375 121.399 280.844 115.701 280.497 111.87Z" fill="black"/>
<path d="M282.96 106.856C289.54 104.587 293.992 116.844 287.894 118.939C281.899 121.011 277.448 108.755 282.96 106.856Z" fill="black"/>
<path d="M242.798 111.826C244.5 110.907 245.908 109.803 247.494 108.734C249.28 107.529 250.836 106.739 251.622 104.745C252.043 103.675 251.25 102.168 250.159 101.692C247.61 100.588 245.024 101.563 242.81 102.93C240.408 104.414 238.968 106.123 238.127 108.666C237.31 111.131 240.548 113.036 242.798 111.826Z" fill="#542A2A"/>
<path d="M286.205 99.2147C284.241 99.4332 282.393 99.338 280.436 99.3716C278.222 99.4108 276.46 99.6517 274.514 98.4977C273.472 97.8815 273.112 96.2401 273.667 95.2542C274.96 92.9575 277.661 92.2908 280.326 92.1452C283.216 91.9883 285.491 92.5429 287.833 94.1002C290.107 95.6071 288.79 98.9234 286.205 99.2147Z" fill="#542A2A"/>
<path d="M264.733 154.522C266.02 155.155 267.41 156.124 268.965 155.839C270.453 155.564 271.971 154.505 273.154 153.671C273.27 153.587 273.447 153.682 273.398 153.822C272.782 155.587 270.788 157.121 268.752 157.329C266.764 157.53 265.349 156.276 264.385 154.808C264.251 154.601 264.544 154.433 264.733 154.522Z" fill="black"/>
<path d="M265.483 141.845C268.88 144.557 272.898 145.459 276.832 145.122C278.588 144.982 280.357 144.568 282.021 143.968C282.357 143.873 282.68 143.75 282.967 143.604C283.259 143.487 283.528 143.38 283.845 143.229C284.314 143.033 284.467 142.59 284.412 142.142L284.4 142.114C284.351 141.974 284.314 141.862 284.235 141.733C284.235 141.733 284.235 141.733 284.229 141.705L284.113 141.369C283.265 138.389 281.527 133.975 281.527 133.975C282.875 134.199 289.662 135.078 289.077 133.555C284.192 120.984 278.765 107.002 271.014 95.4397C270.782 95.0475 270.112 95.3332 270.282 95.7422C274.453 107.993 280.948 119.488 285.351 131.74C283.223 131.583 279.71 131.179 278.033 131.661C277.612 131.902 281.558 140.137 281.82 141.504C281.82 141.504 281.838 141.56 281.838 141.655C276.631 143.739 272.075 143.324 265.764 141.392C265.386 141.257 265.136 141.604 265.483 141.845Z" fill="black"/>
<path opacity="0.2" d="M203.105 133.236C206.697 130.536 211.234 116.7 213.344 110.986C215.533 105.048 209.039 80.9765 206.916 73.8174C201.556 79.3744 197.781 86.1695 196.452 93.8216C194.927 102.532 197.879 117.971 203.105 133.236Z" fill="black"/>
<path d="M263.056 80.7343C260.013 86.7619 253.848 91.0753 246.615 91.8708C239.572 92.6438 231.553 90.1398 227.26 84.7788C227.132 84.622 226.863 84.8012 226.992 84.9637C231.583 90.6888 238.883 94.4756 246.798 93.4281C254.226 92.4422 260.958 87.3949 263.532 80.9304C263.641 80.6391 263.196 80.4542 263.056 80.7343Z" fill="#1A2E35"/>
<path d="M227.9 40.5423C216.295 43.8642 207.435 52.6311 205.453 61.0674C204.245 66.1931 205.27 70.8034 207.49 75.1841C207.581 75.3633 207.984 75.2121 207.91 75.0272C204.965 67.9409 206.282 58.6362 213.167 51.3258C219.784 44.3067 230.114 39.9429 240.487 40.7327C245.902 41.1417 250.75 42.9455 253.866 45.8808C254.214 46.2113 255.013 45.724 254.702 45.3767C249.427 39.5171 238.401 37.5397 227.9 40.5423Z" fill="#1A2E35"/>
<path d="M302.999 45.8927C299.505 41.0975 294.071 37.6299 288.046 36.0726C279.606 33.8879 271.691 36.6328 263.892 39.5009C263.678 39.5794 263.812 39.8819 264.02 39.8035C270.673 37.3779 277.57 35.2772 284.79 36.5712C290.675 37.6299 296.23 40.5149 300.041 44.7947C307.957 53.6792 307.408 67.4318 298.627 75.6441C293.657 80.2936 286.522 82.9265 279.436 82.7136C279.155 82.708 279.076 83.1001 279.363 83.1169C292.419 83.8228 304.816 75.1735 306.896 63.1856C307.926 57.27 306.652 50.8951 302.999 45.8927Z" fill="#1A2E35"/>
<path d="M185.58 75.9153L185.581 75.9152C186.355 74.1257 187.992 72.5226 190.085 71.1198C192.17 69.7223 194.658 68.5559 197.06 67.6209C199.46 66.6869 201.76 65.9896 203.461 65.5257C204.311 65.2939 205.01 65.1206 205.496 65.0055C205.739 64.948 205.928 64.905 206.057 64.8765C206.121 64.8622 206.17 64.8516 206.202 64.8446L206.239 64.8367L206.248 64.8349L206.25 64.8344L206.25 64.8343L206.148 64.3449L206.25 64.8343L206.554 64.7709L206.632 64.4717L206.632 64.4716L206.632 64.4712L206.633 64.4674L206.638 64.4483C206.641 64.4367 206.646 64.421 206.652 64.4011C206.655 64.3905 206.658 64.3787 206.662 64.3657C206.684 64.2913 206.719 64.179 206.768 64.0322C206.867 63.7386 207.024 63.3074 207.255 62.7667C207.716 61.6853 208.472 60.1672 209.646 58.4377C211.992 54.9808 216.008 50.6742 222.685 47.3195C229.416 43.94 237.684 43.0578 244.309 43.032C247.614 43.0192 250.496 43.2194 252.55 43.4229C253.577 43.5246 254.397 43.627 254.959 43.7038C255.24 43.7422 255.456 43.7742 255.602 43.7965C255.675 43.8077 255.73 43.8164 255.766 43.8223L255.807 43.829L255.817 43.8306L255.82 43.831L255.82 43.8311L256.064 43.8721L256.245 43.703L256.245 43.7029L256.245 43.7029L256.246 43.702L256.251 43.6972L256.274 43.6761C256.295 43.6571 256.327 43.6282 256.369 43.5902C256.455 43.5143 256.583 43.4021 256.753 43.2598C257.093 42.9751 257.597 42.5699 258.251 42.0934C259.557 41.1399 261.456 39.903 263.82 38.7726C268.55 36.5108 275.112 34.6883 282.514 36.3806C303.154 41.1 308.562 66.5243 293.151 79.1447C287.776 83.5456 280.028 84.3397 273.532 83.9962C270.297 83.8251 267.402 83.3736 265.316 82.9647C264.273 82.7603 263.434 82.5668 262.856 82.4247C262.567 82.3536 262.344 82.2954 262.193 82.2552C262.118 82.2351 262.061 82.2195 262.023 82.209L261.981 82.1972L261.971 82.1943L261.969 82.1936L261.968 82.1935L261.804 82.1463L261.645 82.2099C261.485 82.2736 261.293 82.3972 261.101 82.5289C260.896 82.6688 260.646 82.851 260.36 83.0608L260.27 83.1262C259.706 83.5391 258.989 84.0634 258.131 84.6407C256.322 85.8572 253.891 87.3026 250.984 88.3977C245.184 90.5828 237.485 91.3786 229.017 86.1367L228.614 85.8874L228.344 86.2759L228.344 86.2759L228.344 86.2761L228.343 86.2768L228.34 86.2816L228.325 86.3031C228.319 86.311 228.312 86.3207 228.304 86.332C228.292 86.3483 228.277 86.3682 228.26 86.3913C228.203 86.4696 228.115 86.5854 228 86.7325C227.769 87.0267 227.424 87.4456 226.976 87.9383C226.077 88.9248 224.766 90.2016 223.112 91.367C219.803 93.6987 215.171 95.5555 209.726 93.8325L209.237 94.6775C209.126 94.5282 209.075 94.3167 209.076 94.2849C209.076 94.2804 209.077 94.2749 209.077 94.2695C209.078 94.2603 209.079 94.2512 209.079 94.2471C209.08 94.2365 209.082 94.2285 209.082 94.2271L209.083 94.2213L209.083 94.2234L209.081 94.232C209.078 94.2468 209.072 94.2712 209.064 94.3047C209.048 94.3717 209.022 94.4729 208.984 94.604C208.909 94.8661 208.789 95.2461 208.609 95.7078C208.25 96.6321 207.656 97.8784 206.724 99.163C204.894 101.686 201.753 104.368 196.46 105.049C196.455 105.044 196.45 105.039 196.445 105.034C196.324 104.913 196.146 104.734 195.922 104.5C195.473 104.033 194.837 103.349 194.092 102.486C192.6 100.758 190.674 98.3167 188.931 95.4604C185.425 89.7156 182.753 82.4445 185.58 75.9153Z" fill="#542A2A" stroke="black"/>
<path d="M285.009 200.402L271.52 234.68L224.32 193.764L212.008 207.852C212.008 207.852 259.257 273.831 259.409 270.767L273.283 241.284L295.87 260.667L292.01 210.155L285.009 200.402Z" fill="#F7DF1E"/>
<path d="M295.504 235.598C294.559 227.279 293.864 218.871 292.504 210.603C292.455 210.311 291.949 210.194 291.882 210.546C290.394 218.664 294.181 250.465 294.462 258.112C294.431 258.084 294.395 258.056 294.364 258.028C293.419 257.187 273.466 241.009 273.283 241.278C270.203 245.989 260.019 267.461 259.342 269.405C251.872 258.924 223.308 220.871 214.57 211.017C214.32 210.731 213.838 210.989 214.039 211.325C220.717 222.434 258.543 273.702 259.086 273.534C259.47 273.786 272.142 247.334 273.582 242.371C276.99 245.928 297.218 264.268 297.23 263.025C297.328 254.65 296.444 243.928 295.504 235.598Z" fill="#1C1C1C"/>
<path d="M217.43 138.898C217.43 138.898 199.837 122.451 191.482 128.518C183.128 134.585 198.733 159.955 210.216 161.983C221.698 164.011 223.949 154.286 223.949 154.286L217.43 138.898Z" fill="#FFA8A7" stroke="black" stroke-width="1.2817" stroke-miterlimit="10"/>
<path d="M196.153 135.684C195.976 135.695 195.982 135.925 196.147 135.958C204.239 137.611 209.411 143.448 213.429 149.711C210.703 147.481 207.38 146.546 204.069 149.588C203.898 149.75 204.136 150.002 204.343 149.929C207.337 148.843 209.667 148.988 212.179 150.949C213.96 152.338 215.35 154.226 216.753 155.929C217.222 156.495 218.387 155.974 217.997 155.296C217.966 155.246 217.936 155.195 217.905 155.145C216.466 146.243 206.691 134.978 196.153 135.684Z" fill="#1A2E35"/>
</svg>
