<svg width="55" height="55" viewBox="0 0 55 55" fill="none" xmlns="http://www.w3.org/2000/svg">
<path fill-rule="evenodd" clip-rule="evenodd" d="M27.4181 0C12.2566 0 0 12.6042 0 28.1972C0 40.6616 7.85321 51.2125 18.7477 54.9467C20.1098 55.2275 20.6087 54.34 20.6087 53.5935C20.6087 52.9398 20.5638 50.6991 20.5638 48.3645C12.9368 50.0454 11.3485 45.0032 11.3485 45.0032C10.1228 41.7353 8.30668 40.8954 8.30668 40.8954C5.81036 39.168 8.48852 39.168 8.48852 39.168C11.2576 39.3548 12.7106 42.0624 12.7106 42.0624C15.1615 46.357 19.1108 45.1435 20.6996 44.3965C20.9264 42.5757 21.6532 41.3153 22.4248 40.6152C16.3417 39.9615 9.94153 37.5341 9.94153 26.7031C9.94153 23.6219 11.0303 21.1011 12.7555 19.1406C12.4833 18.4405 11.5298 15.5455 13.0283 11.6709C13.0283 11.6709 15.3433 10.9238 20.5633 14.5653C22.7981 13.948 25.1029 13.6341 27.4181 13.6314C29.7331 13.6314 32.0931 13.9585 34.2723 14.5653C39.4928 10.9238 41.8079 11.6709 41.8079 11.6709C43.3063 15.5455 42.3522 18.4405 42.0801 19.1406C43.8507 21.1011 44.8946 23.6219 44.8946 26.7031C44.8946 37.5341 38.4944 39.9145 32.3658 40.6152C33.3648 41.5021 34.2268 43.1825 34.2268 45.8437C34.2268 49.6249 34.1819 52.6596 34.1819 53.5929C34.1819 54.34 34.6814 55.2275 36.043 54.9473C46.9375 51.2119 54.7907 40.6616 54.7907 28.1972C54.8356 12.6042 42.5341 0 27.4181 0Z" fill="white"/>
</svg>
