<svg width="55" height="55" viewBox="0 0 55 55" fill="none" xmlns="http://www.w3.org/2000/svg">
<g clip-path="url(#clip0_3_649)">
<path d="M47.9748 54.6362H6.96353C3.29055 54.6362 0.302185 51.6478 0.302185 47.9748V6.96355C0.302185 3.29057 3.29055 0.3022 6.96353 0.3022H47.9748C51.6478 0.3022 54.6362 3.29057 54.6362 6.96355V47.9748C54.6362 51.6478 51.6478 54.6362 47.9748 54.6362ZM6.96353 3.92447C5.28763 3.92447 3.92445 5.28764 3.92445 6.96355V47.9748C3.92445 49.6501 5.28763 51.0139 6.96353 51.0139H47.9748C49.6501 51.0139 51.0139 49.6501 51.0139 47.9748V6.96355C51.0139 5.28764 49.6501 3.92447 47.9748 3.92447H6.96353Z" fill="white"/>
<path d="M19.1319 22.4101H12.8715V42.5378H19.1319V22.4101Z" fill="white"/>
<path d="M16.0017 19.6584C13.9974 19.6584 12.3764 18.0332 12.3764 16.0319C12.3764 14.0288 13.9974 12.403 16.0017 12.403C18.0018 12.403 19.627 14.0282 19.627 16.0319C19.627 18.0332 18.0012 19.6584 16.0017 19.6584Z" fill="white"/>
<path d="M42.562 42.5354H36.3093V32.7474C36.3093 30.4129 36.2689 27.4106 33.0583 27.4106C29.8031 27.4106 29.3063 29.9553 29.3063 32.5796V42.5354H23.0536V22.4083H29.0539V25.1606H29.1391C29.974 23.5777 32.0151 21.9096 35.0578 21.9096C41.3926 21.9096 42.562 26.077 42.562 31.4966V42.5354Z" fill="white"/>
</g>
<defs>
<clipPath id="clip0_3_649">
<rect width="55" height="55" fill="white"/>
</clipPath>
</defs>
</svg>
