<svg width="577" height="259" viewBox="0 0 577 259" fill="none" xmlns="http://www.w3.org/2000/svg">
<path d="M142.467 322.213C140.881 321.542 139.785 321.073 138.678 320.623C138.343 320.545 138.012 320.449 137.687 320.334C134.579 318.622 131.609 316.538 128.338 315.266C124.995 313.965 122.179 311.465 118.539 310.912C118.365 310.889 118.199 310.827 118.051 310.731C113.917 308.002 109.023 307.067 104.683 304.817C103.778 304.347 102.907 303.819 101.977 303.408C98.2418 301.745 94.3768 300.336 90.78 298.404C88.1219 296.98 85.1237 296.364 82.6428 294.798C80.3056 293.321 77.6954 292.685 75.3295 291.384C73.1264 290.17 70.77 289.246 68.4855 288.194C68.3274 288.121 68.1263 288.106 68.0065 287.994C65.449 285.704 62.0869 285.058 59.1845 283.454C55.5446 281.443 51.785 279.653 48.0732 277.774C47.8326 277.671 47.5976 277.555 47.3692 277.427C42.9582 274.663 38.5615 271.88 34.1314 269.14C32.0815 267.873 29.8928 266.831 27.9196 265.456C25.386 263.695 22.3591 262.771 20.1464 260.452C19.3897 259.659 18.2115 259.293 17.2584 258.681C14.9308 257.184 12.7852 255.222 10.2708 254.239C6.26686 252.669 3.43155 249.362 -0.409517 247.571C-2.78983 246.461 -4.80615 244.563 -7.03321 243.081C-7.83972 242.607 -8.68027 242.197 -9.54762 241.853C-9.77751 241.745 -10.1511 241.765 -10.2469 241.598C-11.7412 238.952 -14.7968 238.243 -16.7077 236.1C-18.9419 233.731 -20.5132 230.793 -21.2576 227.593C-21.7797 225.235 -22.2873 222.975 -21.8084 220.592C-21.6731 220.027 -21.4235 219.497 -21.0756 219.037C-20.1898 217.666 -19.1968 216.37 -18.1062 215.162C-17.011 214.06 -15.7677 213.123 -14.4136 212.379C-12.2105 211.185 -9.90682 210.182 -7.61272 209.175C-5.40003 208.206 -3.17298 207.247 -0.902822 206.44C3.08672 205.021 7.25825 204.048 11.0897 202.292C15.4672 200.286 20.2374 199.841 24.6484 197.972C28.0154 196.549 31.7511 196.055 35.3096 195.091C38.1257 194.328 40.8987 193.388 43.7245 192.689C46.8136 191.926 49.9506 191.348 53.0685 190.708C53.4038 190.639 53.8348 190.81 54.0982 190.654C57.3454 188.721 61.1482 188.849 64.6205 187.694C67.6617 186.682 70.9664 186.515 74.1417 185.899C77.5853 185.229 81.0097 184.461 84.4436 183.746C86.5318 183.316 88.6247 182.929 90.7081 182.484C94.0319 181.78 97.351 181.036 100.68 180.332C103.836 179.662 107.025 179.133 110.153 178.326C113.472 177.47 116.968 177.705 120.22 176.423C121.322 175.988 122.644 176.174 123.798 175.836C125 175.484 126.465 175.939 127.399 174.687C127.46 174.626 127.534 174.582 127.615 174.557C127.695 174.532 127.781 174.528 127.864 174.545C130.407 175.841 132.543 173.855 134.895 173.605C137.218 173.361 139.497 172.764 141.806 172.368C143.578 172.064 145.364 171.82 147.146 171.575C149.373 171.272 151.567 171.018 153.717 170.137C155.331 169.472 157.247 169.614 159.009 169.271C161.84 168.718 164.665 168.161 167.534 167.848C169.081 167.676 170.638 167.642 172.19 167.535C172.616 167.548 173.043 167.495 173.454 167.378C176.676 166.16 180.054 165.425 183.483 165.196C186.912 164.888 190.336 164.487 193.751 164.037C194.738 163.905 195.667 163.367 196.654 163.186C200.528 162.481 204.403 161.674 208.311 161.263C209.93 161.092 211.52 160.862 213.33 160.524C214.59 158.025 215.936 155.417 217.229 152.785C219.504 148.148 221.726 143.486 224.006 138.848C225.974 134.842 227.973 130.85 230.002 126.873C231.966 123.047 234.011 119.266 235.989 115.45C236.378 114.659 236.714 113.842 236.994 113.004C237.684 111.101 238.326 109.213 239.542 107.535C240.29 106.498 240.553 105.109 241.132 103.935C242.411 101.337 243.738 98.7637 245.084 96.2052C246.209 94.0675 247.9 92.0765 248.417 89.8066C248.982 87.3019 250.366 85.3256 251.305 83.0949C252.694 79.7928 254.375 76.618 255.999 73.4284C257.033 71.4031 258.207 69.4562 259.279 67.4456C259.426 67.037 259.523 66.6114 259.567 66.1786C259.65 65.5743 259.801 64.9818 260.017 64.4126C261.664 61.1203 263.374 57.8574 265.036 54.57C267.038 50.6026 269.045 46.6353 270.989 42.6386C272.757 39.0088 274.447 35.3349 276.167 31.6806C277.206 29.4695 278.193 27.229 279.289 25.0472C281.004 21.6277 282.867 18.2865 284.529 14.8426C286.732 10.2686 289.376 6.01756 292.872 2.36817C293.348 1.88475 293.929 1.52275 294.567 1.31152C296.344 0.719591 298.169 -0.532744 300.018 0.249965C302.479 1.29195 304.865 2.73507 306.047 5.3816C306.756 6.97148 307.149 8.70323 307.695 10.3714C307.968 11.2079 308.313 12.02 308.562 12.8614C308.988 14.2849 309.309 15.7476 309.774 17.1565C310.353 18.9029 311.139 20.5808 311.641 22.3468C312.312 24.695 312.743 27.1067 313.37 29.4695C314.108 32.2432 315.123 34.9485 315.688 37.7515C316.345 41.0096 317.523 44.0572 318.576 47.1734C319.419 49.6683 319.86 52.305 320.492 54.8733C320.747 56.1599 321.089 57.4267 321.517 58.6646C322.049 59.9854 322.643 61.2377 322.379 62.7248C322.304 63.077 322.36 63.4453 322.537 63.757C324.568 66.3693 324.592 69.6714 325.44 72.6702C326.584 76.7158 327.355 80.8739 328.375 84.9587C328.821 86.7442 329.544 88.4515 330.037 90.2224C331.149 94.2093 332.466 98.1571 333.203 102.217C334.128 107.325 335.794 112.221 337.078 117.206C338.16 121.404 338.845 125.689 340.009 129.867C341.163 134.01 341.872 138.286 342.825 142.718C343.936 142.718 344.942 142.806 345.928 142.703C349.798 142.307 353.663 141.852 357.533 141.412C357.872 141.404 358.207 141.34 358.525 141.221C361.278 139.832 364.305 140.326 367.198 139.9C368.898 139.651 370.637 139.685 372.347 139.479C379.114 138.677 385.867 137.787 392.634 137.033C395.867 136.671 399.134 136.637 402.366 136.295C405.168 135.996 407.941 135.429 410.738 135.062C412.424 134.842 414.143 134.852 415.824 134.617C416.974 134.46 418.076 133.912 419.225 133.795C423.684 133.345 428.229 133.384 432.597 132.499C436.61 131.686 440.657 131.819 444.642 131.158C449.566 130.341 454.542 130.199 459.475 129.671C465.442 129.035 471.443 128.614 477.392 127.734C479.753 127.382 482.195 127.636 484.595 127.509C486.31 127.416 488.01 127.02 489.72 126.985C491.626 126.946 493.513 126.736 495.467 127.078C497.009 127.352 498.69 126.682 500.318 126.604C503.499 126.457 506.682 126.379 509.868 126.369C513.743 126.364 517.632 126.682 521.497 126.472C527.599 126.109 533.717 126.163 539.812 126.633C543.906 126.966 547.958 127.812 552.029 128.438C553.308 128.634 554.592 128.8 555.851 129.089C561.006 130.331 565.946 132.366 570.502 135.125C574.51 137.474 576.005 141.236 576.828 145.648C577.556 149.552 575.789 152.815 574.851 156.293C574.611 157.188 573.509 157.868 572.753 158.592C570.689 160.573 568.663 162.603 566.498 164.467C564.879 165.861 562.992 166.923 561.373 168.317C558.85 170.425 556.208 172.38 553.461 174.173C548.873 177.284 544.433 180.62 539.883 183.79C537.618 185.371 535.29 186.867 532.901 188.237C531.742 188.902 530.932 189.944 529.696 190.576C527.263 191.818 525.079 193.55 522.771 195.047C521.19 196.069 519.562 197.008 517.991 198.046C516.253 199.195 514.6 200.487 512.833 201.582C508.714 204.136 504.552 206.621 500.4 209.111C497.651 210.76 494.873 212.354 492.124 214.003C490.304 215.094 488.479 216.185 486.726 217.378C482.991 219.917 478.8 221.625 475.222 224.501C472.698 226.526 469.576 227.779 466.721 229.373C466.194 229.667 465.634 229.907 465.121 230.22C461.63 232.348 458.129 234.451 454.676 236.643C452.712 237.885 450.854 239.309 448.905 240.581C448.036 241.154 447.11 241.63 446.141 242C441.797 243.614 438.263 246.662 434.287 248.922C431.907 250.272 429.661 251.872 427.309 253.275C426.203 253.936 424.991 254.401 423.823 254.949C423.588 255.061 423.258 255.076 423.114 255.252C420.643 258.383 416.787 259.381 413.722 261.602C410.724 263.778 407.419 265.515 404.273 267.482C403.473 267.981 402.836 268.798 401.998 269.169C398.794 270.593 396.14 272.956 392.922 274.433C390.245 275.666 388.008 277.897 385.58 279.692C385.326 279.926 385.061 280.146 384.785 280.352C382.079 281.903 379.401 283.517 376.638 284.951C373.913 286.36 373.496 287.583 374.325 290.611C375.105 293.463 375.474 296.437 376.02 299.353C376.149 300.042 376.212 300.747 376.398 301.417C377.471 305.257 378.391 309.161 379.746 312.898C380.35 314.562 380.311 316.377 381.403 317.981C382.208 319.165 382.04 320.999 382.447 322.506C384.344 329.497 385.972 336.585 388.319 343.414C390.201 348.893 390.867 354.666 392.816 360.096C393.468 361.911 393.975 363.779 394.488 365.638C395.345 368.725 396.126 371.832 396.997 374.913C397.299 375.98 397.816 376.983 398.147 378.039C398.348 378.685 398.343 379.399 398.501 380.065C398.889 381.669 399.311 383.269 399.742 384.864C399.809 385.113 400.067 385.304 400.125 385.553C400.944 389.036 401.567 392.573 402.591 395.993C403.64 399.486 403.803 403.248 405.623 406.506C405.776 406.918 405.868 407.352 405.896 407.792C406.385 410.272 406.875 412.754 407.366 415.238C407.386 415.326 407.366 415.433 407.414 415.497C409.277 417.997 408.818 421.113 409.546 423.911C410.288 426.753 410.968 429.615 411.744 432.452C412.51 435.241 413.43 437.99 414.153 440.788C414.522 442.202 414.522 443.709 414.852 445.137C415.369 447.368 416.002 449.574 416.62 451.775C417.477 454.818 418.325 457.861 419.258 460.875C419.694 462.279 420.331 463.614 420.858 464.989C421.009 465.392 421.124 465.807 421.203 466.231C421.509 467.845 421.725 469.484 422.103 471.084C422.645 473.398 423.229 475.702 423.928 477.972C424.575 480.061 425.432 482.076 426.131 484.145C426.83 486.205 427.448 488.289 428.104 490.358C428.717 492.29 429.321 494.223 429.953 496.15C430.657 498.298 431.941 500.431 431.955 502.573C431.969 504.652 433.076 506.379 432.946 508.356C432.827 510.215 432.76 512.122 432.281 513.893C431.889 515.064 431.176 516.095 430.226 516.863C425.964 520.443 424.35 520.835 419.215 518.668C416.636 517.623 414.459 515.75 413.013 513.331C412.807 512.945 412.498 512.628 412.122 512.416C410.523 511.721 409.756 510.259 408.746 508.972C407.802 507.773 406.279 506.986 405.561 505.694C404.795 504.32 404.138 503.043 402.884 501.991C401.246 500.617 399.972 498.802 398.391 497.344C394.79 494.012 390.91 490.979 387.524 487.443C385.436 485.261 382.716 483.911 380.881 481.44C380.139 480.437 378.798 479.914 377.763 479.121C375.642 477.502 373.415 476.025 371.638 473.96C371.087 473.32 370.201 472.997 369.54 472.439C367.409 470.649 365.359 468.755 363.194 467.014C360.905 465.17 358.472 463.511 356.197 461.657C354.516 460.287 353.002 458.702 351.379 457.259C350.349 456.34 349.358 455.503 347.878 455.136C346.781 454.867 345.981 453.458 344.971 452.661C342.935 451.056 340.852 449.52 338.788 447.955C335.876 445.749 332.965 443.541 330.057 441.331C328.189 439.922 326.168 438.68 324.467 437.09C322.599 435.344 319.941 434.879 318.332 432.78C316.742 430.701 314.007 430.148 312.283 428.382C310.822 426.885 308.715 426.44 307.484 424.567C306.795 423.515 305.205 423.075 304.022 422.36C302.46 421.416 300.899 420.475 299.338 419.538C299.098 419.441 298.877 419.3 298.686 419.122C296.723 416.495 293.945 415.081 291.133 413.672C290.305 413.256 289.711 412.376 288.921 411.833C288.011 411.212 287.01 410.737 286.047 410.194C285.659 410.02 285.292 409.8 284.955 409.539C281.037 405.786 276.32 403.199 271.918 400.156C270.218 398.982 268.556 397.759 266.856 396.585C263.245 394.1 259.624 391.626 255.994 389.164C255.711 388.973 255.242 388.973 255.069 388.728C252.977 385.734 249.432 384.81 246.779 382.623C245.922 381.919 244.916 381.4 244.078 380.676C242.397 379.218 242.229 379.453 240.117 380.456C235.036 382.868 231.099 386.938 226.477 390.01C222.458 392.725 218.608 395.692 214.949 398.894C211.007 402.294 206.716 405.204 202.731 408.516C199.063 411.569 195.466 414.685 191.266 416.969C190.985 417.18 190.728 417.421 190.499 417.689C185.777 421.925 180.585 425.555 175.633 429.488C171.701 432.609 167.601 435.51 163.66 438.616C160.963 440.739 158.473 443.131 155.781 445.264C152.864 447.568 149.804 449.677 146.849 451.927C144.392 453.796 142.026 455.792 139.555 457.636C138.118 458.707 136.523 459.563 135.053 460.586C134.409 461.105 133.796 461.664 133.219 462.259C131.365 463.912 129.028 464.822 127.275 466.725C125.766 468.359 123.683 469.44 121.849 470.766C118.625 473.09 115.431 475.457 112.16 477.708C110.45 478.882 108.443 479.64 106.858 480.956C104.382 483.015 101.302 484.043 98.85 485.96C95.8615 488.299 92.6334 490.265 89.6401 492.604C87.231 494.487 84.2233 495.563 81.4934 497.021C80.4589 497.574 79.4579 498.2 78.4426 498.792C77.705 499.222 76.9626 499.658 76.2251 500.093C75.7893 500.348 75.1475 500.499 74.9511 500.886C74.0986 502.598 72.9587 503.263 71.134 502.431C70.8897 502.319 70.4731 502.534 70.1617 502.656C66.7374 504.021 63.3369 505.464 59.879 506.746C58.416 507.307 56.8856 507.664 55.3291 507.808C51.6796 508.086 49.2658 504.603 50.4439 501.027C51.2869 498.484 52.9679 496.786 55.2094 495.48C59.4001 493.044 63.4806 490.417 67.882 488.372C69.4217 487.617 70.882 486.704 72.2403 485.647C72.8167 485.112 73.2403 484.427 73.4664 483.666C75.3295 478.613 77.1063 473.53 78.9694 468.477C81.5892 461.373 84.1946 454.266 86.9245 447.206C89.3336 440.979 91.9055 434.82 94.3959 428.627C96.168 424.224 97.8586 419.787 99.7121 415.424C101.915 410.233 104.224 405.092 106.542 399.96C107.84 397.084 109.262 394.261 110.622 391.409C112.385 387.716 114.19 384.042 115.891 380.324C118.415 374.82 120.824 369.263 123.357 363.765C125.929 358.193 128.645 352.689 131.207 347.113C133.999 341.032 136.681 334.893 139.426 328.787C140.355 326.718 141.317 324.668 142.448 322.218L142.467 322.213ZM331.359 158.861C329.544 159.062 327.863 159.238 326.182 159.438C322.518 159.874 318.845 160.275 315.19 160.784C310.995 161.366 306.823 162.511 302.628 162.574C297.187 162.662 292.039 164.614 286.56 164.462C283.193 164.369 279.802 165.534 276.406 166.023C273.595 166.429 270.664 166.326 267.977 167.124C266.435 167.583 264.481 166.62 263.259 168.386C263.135 168.567 262.46 168.327 262.038 168.322C260.843 168.263 259.645 168.274 258.451 168.356C257.268 168.488 256.118 168.929 254.935 169.085C252.119 169.467 249.274 169.638 246.482 170.117C242.239 170.851 238.043 171.883 233.795 172.578C230.387 173.147 226.951 173.521 223.503 173.698C221.913 173.777 221.118 174.422 220.519 175.729C219.643 177.651 218.771 179.574 217.851 181.472C217.123 182.978 216.276 184.426 215.576 185.943C213.823 189.739 212.171 193.584 210.39 197.37C208.752 200.849 206.999 204.263 205.303 207.712C205.188 207.947 205.169 208.226 205.064 208.465C203.718 211.586 202.406 214.717 201.002 217.809C199.57 220.959 197.99 224.036 196.582 227.201C194.81 231.188 193.196 235.249 191.438 239.245C189.12 244.524 186.749 249.778 184.374 255.027C182.53 259.097 180.576 263.123 178.78 267.213C176.443 272.54 174.335 277.975 171.629 283.131C171.558 283.289 171.503 283.455 171.466 283.625C170.508 286.908 168.334 289.623 167.53 293.032C166.96 295.449 165.523 297.655 164.455 299.945C162.893 303.291 161.399 306.681 159.713 309.963C158.391 312.541 158.502 313.089 160.925 314.611C163.755 316.391 167.137 317.12 169.68 319.468C170.173 319.923 170.935 320.06 171.562 320.373C173.176 321.185 174.805 321.973 176.385 322.853C177.903 323.695 179.331 324.717 180.863 325.52C184.048 327.188 187.31 328.704 190.485 330.397C193.239 331.864 195.911 333.493 198.632 335.03C202.171 337.025 205.71 339.016 209.269 340.968C209.961 341.278 210.673 341.539 211.4 341.751C211.808 341.838 212.191 342.023 212.516 342.289C214.939 345.298 218.824 345.762 221.764 347.871C222.89 348.678 224.111 349.343 225.299 350.053C226.072 350.561 226.877 351.019 227.708 351.422C230.265 352.596 232.686 354.058 234.925 355.781C236.357 356.838 238.23 357.273 239.183 359.024C239.279 359.201 239.83 359.093 240.151 359.181C240.63 359.318 241.252 359.377 241.53 359.714C242.761 361.236 244.116 360.507 245.251 359.827C246.841 358.795 248.369 357.667 249.825 356.446C252.009 354.744 254.121 352.954 256.343 351.305C259.064 349.289 261.866 347.382 264.634 345.43C267.982 343.072 271.349 340.748 274.668 338.351C277.46 336.336 280.137 334.154 282.958 332.182C287.848 328.763 292.819 325.461 297.743 322.095C301.253 319.693 304.764 317.296 308.231 314.831C312.12 312.062 315.942 309.195 319.831 306.426C320.736 305.781 321.814 305.399 322.782 304.841C324.06 304.108 325.545 303.555 326.532 302.518C329.022 299.975 331.901 297.863 335.057 296.266C338.285 294.583 340.718 291.57 344.367 290.699C344.534 290.645 344.684 290.545 344.798 290.41C347.159 287.813 350.325 286.374 353.122 284.398C354.075 283.723 355.062 283.092 355.886 282.544C355.737 281.194 355.646 280.225 355.526 279.257C355.368 277.96 355.273 276.644 355 275.372C354.693 273.929 354.128 272.54 353.836 271.092C353.381 268.847 353.132 266.557 352.672 264.317C352.183 261.959 351.527 259.635 350.981 257.287C350.761 256.348 350.656 255.374 350.44 254.43C350.229 253.501 349.865 252.6 349.722 251.661C349.281 248.731 348.941 245.791 348.51 242.861C348.237 241.021 348.16 239.079 347.485 237.396C345.79 233.17 345.9 228.635 345.081 224.266C344.554 221.478 343.122 218.817 343.582 215.837C343.588 215.708 343.562 215.58 343.508 215.463C343.454 215.346 343.372 215.244 343.27 215.167C342.346 214.893 342.279 214.463 342.681 213.597C342.902 213.122 342.753 212.394 342.6 211.826C341.613 208.206 341.565 204.39 340.402 200.814C339.343 197.556 339.549 194.083 338.495 190.766C337.308 187.019 337.025 182.978 336.22 179.094C335.598 176.081 334.602 173.141 334.104 170.108C333.481 166.351 331.944 162.868 331.374 158.846L331.359 158.861ZM370.498 272.829C373.027 271.263 375.292 269.864 377.557 268.46C378.712 267.746 379.88 267.056 381.015 266.317C385.431 263.436 389.761 260.408 394.272 257.688C397.84 255.54 401.231 253.08 404.814 251.02C408.784 248.736 412.18 245.605 416.332 243.594C419.723 241.951 422.855 239.735 426.088 237.753C430.523 235.033 434.952 232.299 439.374 229.55C440.035 229.139 440.552 228.473 441.232 228.102C444.144 226.487 447.152 225.044 450.011 223.337C452.568 221.811 454.93 219.947 457.463 218.381C459.781 216.953 462.262 215.803 464.585 214.385C468.005 212.301 471.309 210.026 474.729 207.932C481.678 203.681 488.676 199.518 495.63 195.286C499.562 192.894 503.489 190.502 507.349 187.997C509.844 186.373 512.014 184.064 514.687 182.925C518.336 181.364 520.812 178.047 524.596 176.746C525.855 176.311 526.765 174.848 527.881 173.914C528.494 173.428 529.143 172.991 529.821 172.607C530.851 171.986 531.957 171.477 532.944 170.788C535.966 168.669 538.93 166.468 541.943 164.34C543.777 163.049 545.741 161.933 547.518 160.564C551.565 157.452 555.521 154.209 559.549 151.068C560.607 150.246 561.881 149.454 561.756 148.021C561.627 146.543 560.152 146.064 558.95 145.624C554.688 144.012 550.293 142.797 545.817 141.994C544.912 141.837 543.978 141.896 543.063 141.793C539.39 141.387 535.726 140.766 532.043 140.59C528.968 140.443 525.875 140.918 522.79 140.908C519.275 140.898 515.755 140.541 512.239 140.556C507.852 140.575 503.465 140.849 499.078 140.947C497.876 140.976 496.664 140.653 495.472 140.712C493.24 140.825 491.013 141.074 488.786 141.314C484.777 141.744 480.773 142.273 476.76 142.639C475.083 142.796 473.378 142.639 471.688 142.639C470.91 142.587 470.129 142.608 469.355 142.703C465.964 143.349 462.569 143.921 459.101 143.877C458.582 143.884 458.063 143.929 457.549 144.009C454.039 144.45 450.533 144.944 447.013 145.32C445.471 145.487 443.866 145.198 442.353 145.477C437.797 146.25 433.204 146.772 428.593 147.042C427.908 147.096 427.238 147.346 426.548 147.429C424.163 147.708 421.773 147.968 419.378 148.211C418.195 148.334 417.003 148.363 415.824 148.515C414.972 148.622 414.143 148.94 413.286 149.038C411.069 149.293 408.837 149.434 406.624 149.708C404.498 149.973 402.395 150.442 400.269 150.638C397.697 150.873 395.106 150.892 392.524 151.059C391.868 151.103 391.226 151.376 390.57 151.484C388.113 151.89 385.656 152.35 383.185 152.643C379.957 153.025 376.715 153.27 373.477 153.573C371.964 153.715 370.44 153.788 368.937 154.013C366.983 154.307 365.057 154.816 363.098 155.055C358.577 155.608 354.042 156.029 349.516 156.552C348.607 156.715 347.71 156.937 346.829 157.217C347.097 159.111 347.222 160.74 347.566 162.32C349.362 170.548 351.226 178.757 353.046 186.98C353.975 191.167 354.889 195.36 355.751 199.562C356.345 202.458 356.834 205.374 357.394 208.279C357.84 210.588 358.328 212.893 358.798 215.202C359.324 217.775 360.024 220.328 360.34 222.931C360.943 227.872 363.027 232.519 362.979 237.572C362.979 237.744 362.969 238.037 363.046 238.076C364.243 238.6 363.831 239.749 363.96 240.63C364.253 242.636 364.095 244.773 364.693 246.666C365.982 250.737 365.742 255.213 367.907 259.033C367.342 261.298 368.371 263.387 368.544 265.544C368.743 268.076 369.406 270.547 370.498 272.829ZM204.661 176.687C203.124 176.81 201.635 176.482 200.849 177.093C199.585 178.086 198.215 177.886 196.922 178.15C194.446 178.659 191.903 178.83 189.403 179.221C184.532 179.975 179.656 180.699 174.809 181.589C171.327 182.225 167.913 183.174 164.369 183.541C162.185 183.766 160.068 184.642 157.884 184.862C155.831 185.035 153.791 185.332 151.772 185.752C147.314 186.755 142.783 187.425 138.276 188.198C135.982 188.594 133.669 188.868 131.379 189.284C129.454 189.636 127.567 190.214 125.642 190.512C123.683 190.815 121.571 190.532 119.746 191.163C117.236 192.034 114.669 192.722 112.064 193.222C107.835 194.034 103.587 194.763 99.3577 195.595C93.9505 196.661 88.5769 197.918 83.1457 198.862C78.227 199.719 73.3467 200.673 68.6339 202.39C68.3855 202.46 68.13 202.501 67.8724 202.512C65.9279 202.747 63.8925 202.683 62.0486 203.26C57.6232 204.655 52.944 204.894 48.5713 206.567C46.2437 207.458 43.6814 207.683 41.2819 208.407C38.9255 209.121 36.4829 209.317 34.1362 210.29C31.2099 211.503 27.9627 211.88 24.931 212.858C22.0718 213.778 19.361 215.133 16.2623 215.27C15.2182 215.319 14.2268 216.136 13.1779 216.493C9.99298 217.584 6.74579 218.494 3.61355 219.717C0.481302 220.94 -2.56952 222.432 -5.62514 223.87C-6.16154 224.124 -6.54948 224.707 -7.0811 225.206C-6.77002 225.538 -6.44062 225.851 -6.09449 226.145C-2.92872 228.424 0.20352 230.743 3.42197 232.945C5.85018 234.603 8.37417 236.115 10.8742 237.66C14.131 239.671 17.3989 241.664 20.6781 243.638C21.9808 244.426 23.3409 245.116 24.6293 245.923C26.7222 247.229 28.7385 248.662 30.8602 249.915C33.4704 251.451 36.2387 252.723 38.5232 254.802C38.9734 255.213 39.4428 255.736 39.984 255.873C42.8767 256.617 44.6536 259.547 47.7092 259.953C47.9152 259.982 48.0445 260.374 48.2648 260.491C51.5838 262.257 54.558 264.654 58.0734 266.073C59.8359 266.782 61.5265 267.672 63.2363 268.509C66.8906 270.295 70.6742 271.865 74.1417 273.968C77.1255 275.778 80.3296 277.04 83.4427 278.459C88.1362 280.602 92.6766 283.111 97.5952 284.77C99.8031 285.513 101.8 286.893 103.912 287.945C104.353 288.165 104.889 288.175 105.354 288.351C107.097 289.026 108.86 289.662 110.555 290.444C112.366 291.276 114.071 292.342 115.891 293.15C119.669 294.837 123.621 296.178 127.256 298.139C129.708 299.46 132.103 300.717 134.804 301.334C134.965 301.396 135.12 301.476 135.264 301.574C139.521 303.809 143.779 306.045 148.137 308.334C148.504 308.012 148.821 307.634 149.076 307.214C149.986 305.14 150.819 303.031 151.686 300.938C153.564 296.408 155.489 291.902 157.309 287.353C159.421 282.065 161.758 276.884 163.741 271.532C165.36 267.169 167.458 262.986 169.302 258.706C170.087 256.881 170.719 254.988 171.519 253.168C172.549 250.839 173.746 248.584 174.747 246.246C176.988 241.016 179.134 235.743 181.361 230.504C182.151 228.645 183.119 226.869 183.9 225.005C184.934 222.53 185.787 219.971 186.859 217.515C187.827 215.304 188.943 213.157 190.083 211.034C191.644 208.108 191.807 204.527 194.158 201.974C194.284 201.847 194.366 201.682 194.393 201.504C194.599 198.398 196.979 196.25 197.798 193.364C198.574 190.629 199.992 188.086 201.146 185.463C201.326 185.064 201.554 184.689 201.826 184.348C203.493 182.21 204.144 179.701 204.637 176.687H204.661ZM407.453 482.658C407.639 482.492 407.821 482.326 408.008 482.159C407.635 481.215 407.175 480.295 406.897 479.322C405.858 475.731 404.89 472.116 403.865 468.521C403.343 466.671 402.563 464.876 402.256 462.998C401.725 459.71 401.246 456.442 400.202 453.258C399.143 450.019 398.257 446.712 397.472 443.391C396.906 441.003 396.768 438.509 395.532 436.317C395.459 436.153 395.434 435.971 395.46 435.794C395.695 432.076 393.975 428.754 393.07 425.335C392.294 422.39 391.806 419.381 390.987 416.461C390.177 413.589 389.421 410.708 388.664 407.831C387.783 404.461 387.337 400.983 386.178 397.666C385.288 395.117 384.89 392.387 384.219 389.756C384.047 389.085 383.515 388.489 383.439 387.823C383.065 384.658 382.117 381.635 381.207 378.622C380.211 375.31 380.072 371.743 378.506 368.632C377.356 366.348 378.041 363.677 376.949 361.51C375.383 358.398 374.722 355.008 373.965 351.711C372.783 346.602 371.31 341.568 369.554 336.634C369.338 335.882 369.173 335.115 369.061 334.34C368.735 332.73 368.755 330.915 367.993 329.565C367.359 328.324 366.908 326.994 366.657 325.617C366.096 323.279 365.383 320.96 365.019 318.588C364.641 316.093 363.4 313.921 362.864 311.514C362.639 310.511 362.739 309.43 362.5 308.437C361.618 304.768 360.665 301.114 359.707 297.464C359.636 297.181 359.296 296.975 359.008 296.647C356.982 298.022 355.153 299.543 353.098 300.59C350.268 302.033 348.026 304.328 345.229 305.81C343.256 306.857 341.498 308.315 339.63 309.567C338.553 310.286 337.384 310.878 336.359 311.675C334.195 313.358 331.22 313.862 329.693 316.474C329.587 316.65 329.199 316.631 328.984 316.768C325.947 318.7 322.863 320.564 319.898 322.604C315.779 325.436 311.752 328.406 307.685 331.321C305.727 332.725 303.763 334.129 301.814 335.558C299.366 337.348 297.125 339.452 294.251 340.582C293.811 340.849 293.406 341.175 293.049 341.55C291.196 342.989 289.4 344.51 287.465 345.826C284.821 347.621 282.029 349.182 279.385 350.977C277.225 352.445 275.228 354.162 273.097 355.678C271.325 356.94 269.409 357.992 267.656 359.289C264.873 361.343 262.177 363.53 259.437 365.648C258.211 366.597 256.966 367.512 255.596 368.549C256.741 370.643 258.599 371.553 260.185 372.658C263.245 374.801 266.454 376.714 269.61 378.714C270.616 379.35 271.665 379.918 272.646 380.593C274.845 382.109 276.986 383.714 279.203 385.201C282.201 387.212 285.353 388.973 288.221 391.199C290.396 392.886 292.661 394.447 294.912 396.032C296.78 397.348 299.002 398.179 300.31 400.249C300.439 400.454 300.707 400.723 300.899 400.713C303.988 400.586 305.137 403.976 307.776 404.642C308.303 406.192 309.98 405.757 310.966 406.579C313.37 408.585 315.904 410.429 318.327 412.405C320.933 414.528 323.917 416.059 326.479 418.3C329.281 420.756 332.557 422.639 335.598 424.821C337.696 426.323 339.568 428.275 341.848 429.346C344.291 430.491 346.063 432.369 348.108 433.944C350.699 435.95 352.825 438.621 356.149 439.536C356.36 439.595 356.542 439.859 356.685 440.064C359.233 443.626 362.998 445.646 366.413 448.102C366.82 448.402 367.211 448.724 367.586 449.065C368.913 450.254 370.182 451.521 371.566 452.636C373.51 454.207 375.551 455.66 377.529 457.191C379.14 458.344 380.684 459.593 382.15 460.933C383.147 461.916 383.827 463.144 385.46 463.218C385.944 463.237 386.442 463.859 386.868 464.274C387.663 465.042 388.367 465.918 389.191 466.652C392.031 469.176 394.905 471.661 397.879 474.269C398.113 474.22 398.592 474.122 398.947 474.048C401.308 477.629 403.803 480.77 407.457 482.668L407.453 482.658ZM152.28 327.051C151.476 328.499 150.805 329.531 150.297 330.641C148.137 335.362 146.073 340.122 143.889 344.828C141.815 349.304 139.603 353.712 137.515 358.183C136.039 361.348 134.167 364.288 132.95 367.62C131.901 370.486 130.115 373.069 128.726 375.814C126.111 380.984 123.563 386.194 120.953 391.37C119.813 393.635 118.491 395.807 117.414 398.106C114.621 404.064 111.915 410.067 109.181 416.055C106.484 421.969 103.764 427.869 101.111 433.803C99.7121 436.928 98.4813 440.138 97.0971 443.273C95.1095 447.784 92.9926 452.24 91.0338 456.765C88.4188 462.817 85.8804 468.902 83.3517 474.988C82.7578 476.411 82.3315 477.908 81.8239 479.371L82.2693 479.762C84.1279 478.382 86.131 477.217 88.2416 476.289C88.3901 476.22 88.4906 476.035 88.6295 475.937C92.5137 473.241 96.3691 470.502 100.296 467.88C104.224 465.258 108.252 462.782 112.203 460.19C114.957 458.384 117.663 456.506 120.378 454.642C120.804 454.354 121.154 453.952 121.571 453.644C122.538 452.925 123.439 452.001 124.526 451.599C125.541 451.223 125.838 450.655 125.848 450.156C127.079 449.369 128.089 448.777 129.037 448.107C130.029 447.402 130.934 446.566 131.94 445.886C133.233 445.005 134.818 444.447 135.881 443.352C139.406 439.717 143.746 437.222 147.678 434.165C152.339 430.54 157.002 426.924 161.667 423.319C165.374 420.443 169.062 417.537 172.783 414.67C177.324 411.172 181.875 407.691 186.438 404.226C188.857 402.391 191.333 400.63 193.732 398.776C196.184 396.878 198.579 394.902 201.012 392.974C201.759 392.383 202.568 391.879 203.32 391.292C207.027 388.4 210.73 385.5 214.427 382.589C218.91 379.052 223.393 375.525 228.206 372.458C228.626 372.083 228.999 371.658 229.317 371.191C226.817 369.591 224.504 368.128 222.205 366.631C219.681 364.983 217.21 363.241 214.647 361.651C212.224 360.145 209.503 359.293 207.08 357.65C202.837 354.768 198.22 352.469 193.766 349.911C190.087 347.797 186.428 345.66 182.755 343.546C182.013 343.121 181.232 342.764 180.466 342.392C179.316 341.834 178.124 341.35 177.017 340.719C174.709 339.403 172.491 337.921 170.149 336.673C166.418 334.682 162.592 332.872 158.851 330.891C156.734 329.771 154.704 328.469 152.28 327.036V327.051ZM229.379 157.623C230.289 157.849 230.725 158.088 231.113 158.025C238.12 156.899 245.125 155.75 252.129 154.576C253.403 154.365 254.667 153.915 255.936 153.891C258.679 153.776 261.409 153.459 264.107 152.942C266.305 152.575 268.504 151.88 270.702 151.866C274.672 151.841 278.533 150.995 282.431 150.516C286.904 149.968 291.335 149.043 295.87 149.028C296.565 149.003 297.257 148.921 297.939 148.784C300.391 148.383 302.829 147.898 305.286 147.561C310.487 146.847 315.727 146.352 320.899 145.457C322.75 145.151 324.616 144.948 326.488 144.851C327.026 144.762 327.555 144.627 328.069 144.445C327.418 141.372 327.145 138.344 326.115 135.624C324.554 131.505 324.721 127.024 323.107 122.959C322.796 122.172 322.6 121.34 322.336 120.533C322.035 119.801 321.782 119.049 321.579 118.283C321.12 115.876 320.832 113.425 320.301 111.038C319.515 107.52 318.543 104.047 317.71 100.54C317.47 99.522 317.556 98.4164 317.283 97.4136C316.517 94.6203 315.602 91.871 314.831 89.0777C314.51 87.9183 314.419 86.6904 314.185 85.5017C313.715 83.1242 313.576 80.6587 312.274 78.5013C311.998 77.9498 311.811 77.357 311.718 76.7451C310.885 73.0517 310.19 69.3143 309.213 65.66C308.054 61.3355 306.502 57.148 305.684 52.6915C304.884 48.3328 303.341 44.1159 302.135 39.8306C301.373 37.1254 300.602 34.425 299.888 31.71C299.237 29.2445 298.681 26.7496 298.016 24.284C297.747 23.3008 297.293 22.3762 296.833 21.1923C296.239 21.6571 295.774 21.8332 295.621 22.1609C293.93 25.7859 291.723 29.1026 290.147 32.8302C286.971 40.3394 283.236 47.6039 279.687 54.9467C278.695 56.9964 277.493 58.9434 276.497 60.9931C274.629 64.8333 272.843 68.7224 271.008 72.5821C269.993 74.7199 268.962 76.8479 267.915 78.9661C266.444 81.9306 264.96 84.8902 263.46 87.8449C262 90.7214 260.486 93.5685 259.069 96.4694C258.499 97.6288 258.197 98.9203 257.646 100.094C256.315 102.932 254.72 105.656 253.575 108.567C252.182 112.104 250.275 115.382 248.901 118.933C247.617 122.24 245.692 125.283 244.064 128.453C243.427 129.695 242.876 130.992 242.2 132.215C241.022 134.362 239.667 136.412 238.58 138.609C236.511 142.796 234.6 147.067 232.588 151.279C231.616 153.314 230.558 155.31 229.384 157.623H229.379Z" fill="white" fill-opacity="0.2"/>
</svg>
